Coordinates
version=1
nRows=8
nColumns=34
inDegrees=yes

Units are S.I. units (second, meters, Newtons, ...)
If the header above contains a line with 'inDegrees', this indicates whether rotational values are in degrees (yes) or radians (no).

endheader
time	pelvis_tilt	pelvis_list	pelvis_rotation	pelvis_tx	pelvis_ty	pelvis_tz	hip_flexion_r	hip_adduction_r	hip_rotation_r	knee_angle_r	ankle_angle_r	subtalar_angle_r	mtp_angle_r	hip_flexion_l	hip_adduction_l	hip_rotation_l	knee_angle_l	ankle_angle_l	subtalar_angle_l	mtp_angle_l	lumbar_extension	lumbar_bending	lumbar_rotation	arm_flex_r	arm_add_r	arm_rot_r	elbow_flex_r	pro_sup_r	arm_flex_l	arm_add_l	arm_rot_l	elbow_flex_l	pro_sup_l
      6.00000000	     -0.56437002	     -4.43349417	    -63.68692125	      3.19065433	      1.14291570	      8.53367789	    -19.04691901	     -1.55455187	     -6.38345922	     31.59950660	     -6.72337256	     -2.71787935	      0.00000000	     19.71255122	      7.96852956	     -6.38465507	     17.82407552	      0.39919439	     -4.66629787	      0.00000000	     -8.69164722	     -2.01020546	     16.41803972	     13.01964298	    -18.67425250	     26.92323399	     93.82974292	    119.74817918	    -17.58403264	    -18.28015887	     10.26764044	     90.93279575	    119.74817918
      6.01666670	     -0.34870881	     -4.39984578	    -63.54790995	      3.20579880	      1.14322986	      8.55523787	    -16.33483649	     -2.32508721	     -6.61717264	     38.69678536	     -6.49089285	     -4.34569799	      0.00000000	     19.63549998	      8.56859132	     -5.16656942	     21.40906068	      2.43384963	     -7.65573904	      0.00000000	     -8.67144207	     -2.76925090	     15.17903617	     10.94944167	    -18.12599386	     27.09201049	     91.76471052	    119.74817918	    -15.08303779	    -17.99904803	     10.40314912	     90.59423567	    119.74817918
      6.03333330	      0.01647281	     -4.44557149	    -63.19944666	      3.21974633	      1.13879729	      8.58155299	    -14.09123604	     -2.97332294	     -6.99731872	     44.57955117	     -5.27864448	     -5.44296124	      0.00000000	     19.68776298	      9.44473731	     -3.73009741	     25.24938987	      5.32848182	     -9.92816921	      0.00000000	     -8.82760011	     -4.04826495	     13.80226046	      9.72208698	    -17.76124196	     27.23018431	     89.34449425	    119.74817918	    -12.13619423	    -17.60413271	     10.89459455	     90.16735962	    119.74817918
      6.05000000	      0.32551503	     -4.57056874	    -63.21892529	      3.23329334	      1.13110431	      8.60597084	    -12.07218032	     -3.45114695	     -6.98947614	     49.61948764	     -3.31697700	     -6.16253314	      0.00000000	     19.64210390	     10.26407379	     -2.35226602	     28.76269125	      8.53150774	    -11.40688021	      0.00000000	     -9.52134854	     -4.61597120	     12.30513291	      8.92172511	    -16.98311359	     27.81076280	     87.27405966	    119.74817918	     -9.06212094	    -17.20147283	     11.51112549	     90.11223695	    119.74817918
      6.06666670	      0.26322485	     -4.39776510	    -63.14153527	      3.24434800	      1.12103119	      8.63288330	     -8.49017136	     -4.37698300	     -7.32903506	     55.54577610	     -1.12186739	     -6.49490736	      0.00000000	     20.09405157	     10.93019493	     -1.33232513	     32.43578044	     11.94545126	    -12.31177004	      0.00000000	     -9.57145209	     -5.79502230	     10.31434070	      7.51176994	    -16.24921781	     27.78771615	     85.31283472	    119.74817918	     -5.89372807	    -16.39083500	     12.04625399	     90.28483124	    119.74817918
      6.08333330	      0.14459495	     -4.54023012	    -63.39635149	      3.25542504	      1.11231776	      8.66470744	     -2.98144667	     -5.39635062	     -6.99860852	     61.74135001	      1.00916273	     -7.74547956	      0.00000000	     19.70154032	     11.40801300	     -0.55414191	     35.35807114	     15.59571070	    -12.66773367	      0.00000000	    -10.29799967	     -6.10273386	      7.83725653	      6.04936580	    -15.20944782	     27.37927865	     82.32000005	    119.74817918	     -2.43874850	    -16.02289215	     12.94290382	     91.11923386	    119.74817918
      6.10000000	     -0.12727483	     -5.09915286	    -63.81118675	      3.26929047	      1.11585504	      8.70589599	      4.54590745	     -5.65273083	     -5.45958698	     62.45044835	      4.02270518	     -9.26521144	      0.00000000	     17.44915478	     11.13631139	     -0.17365356	     35.90255288	     17.70532411	    -11.48206232	      0.00000000	    -10.77604574	     -5.89568061	      5.48416322	      4.73338932	    -14.99779168	     26.75299111	     80.87120138	    119.74817918	      0.52131689	    -15.54509469	     13.69716162	     92.72160703	    119.74817918
      6.11666670	     -0.68723896	     -6.35593319	    -63.83260194	      3.28836230	      1.12561009	      8.77569610	     11.90883927	     -5.29962279	     -3.93041228	     55.96481120	      7.05465806	    -10.06259339	      0.00000000	     13.37449795	      9.64431981	     -0.36268837	     36.63775997	     18.56903185	     -8.96002443	      0.00000000	    -11.07243406	     -5.12012112	      2.31999158	      2.30836716	    -15.27206198	     25.47874796	     81.83655387	    119.74817918	      2.29552722	    -15.25811647	     14.63044893	     94.59008825	    119.74817918
